<?xml version="1.0" standalone="no"?>
<!DOCTYPE svg PUBLIC "-//W3C//DTD SVG 20010904//EN"
 "http://www.w3.org/TR/2001/REC-SVG-20010904/DTD/svg10.dtd">
<svg version="1.0" xmlns="http://www.w3.org/2000/svg"
 width="1349.000000pt" height="468.000000pt" viewBox="0 0 1349.000000 468.000000"
 preserveAspectRatio="xMidYMid meet">

<g transform="translate(0.000000,468.000000) scale(0.100000,-0.100000)"
fill="#000000" stroke="none">
<path d="M2328 4349 c-239 -19 -485 -87 -705 -194 -629 -304 -1046 -889 -1133
-1585 -21 -177 -11 -435 26 -625 138 -708 653 -1292 1339 -1521 243 -81 446
-110 710 -101 265 9 493 59 726 159 651 280 1103 872 1205 1578 21 147 15 487
-11 630 -54 297 -170 569 -355 833 -85 121 -326 362 -447 447 -411 288 -876
419 -1355 379z m549 -83 c677 -143 1211 -596 1458 -1235 130 -335 160 -734 85
-1100 -130 -626 -580 -1165 -1180 -1412 -517 -214 -1104 -194 -1607 55 -886
437 -1312 1450 -1002 2381 72 218 192 437 336 615 79 97 257 270 353 341 221
166 498 291 765 348 164 35 220 40 450 36 190 -3 237 -7 342 -29z"/>
<path d="M2467 4174 c-14 -15 -6 -34 14 -34 14 0 19 5 17 17 -3 18 -20 27 -31
17z"/>
<path d="M2043 4114 c-9 -23 13 -40 32 -24 12 10 13 16 4 26 -15 18 -28 18
-36 -2z"/>
<path d="M2460 4020 l0 -100 25 0 c24 0 25 3 25 54 0 97 -11 146 -31 146 -17
0 -19 -9 -19 -100z"/>
<path d="M2649 4119 c-50 -210 -50 -209 -24 -209 9 0 19 21 27 60 6 33 15 57
19 52 4 -4 11 -32 16 -62 6 -44 12 -56 28 -58 16 -2 27 11 53 60 l32 63 -6
-66 c-5 -60 -4 -67 14 -71 17 -5 20 1 26 55 12 114 9 144 -16 150 -12 4 -23 5
-24 4 -1 -1 -17 -31 -35 -67 l-33 -65 -12 50 c-7 28 -13 60 -13 73 -1 12 -5
22 -10 22 -5 0 -16 3 -25 6 -9 3 -16 5 -17 3z"/>
<path d="M2238 4098 c-41 -34 -25 -81 37 -108 25 -11 45 -24 45 -29 0 -17 -34
-29 -64 -24 -23 5 -27 3 -24 -13 2 -11 13 -20 26 -22 12 -2 22 -10 22 -18 0
-8 10 -14 23 -14 20 -1 21 -2 5 -14 -22 -16 -12 -29 13 -15 23 12 25 37 4 45
-12 5 -10 10 10 26 18 14 25 29 25 53 0 37 -21 57 -73 69 -42 10 -32 41 13 41
25 0 36 5 38 18 3 14 -4 17 -40 17 -24 0 -51 -6 -60 -12z"/>
<path d="M2055 4048 c3 -13 14 -57 23 -98 15 -64 21 -75 40 -78 27 -4 27 -7 0
106 -20 83 -24 92 -45 92 -19 0 -22 -4 -18 -22z"/>
<path d="M3141 4050 c-17 -10 -7 -40 13 -40 7 0 16 6 19 14 8 19 -15 37 -32
26z"/>
<path d="M3192 4013 c2 -10 10 -18 18 -18 8 0 16 8 18 18 2 12 -3 17 -18 17
-15 0 -20 -5 -18 -17z"/>
<path d="M3066 3955 c-34 -84 -34 -118 0 -144 27 -21 78 -28 101 -13 17 11 75
143 69 159 -12 30 -35 9 -64 -57 -32 -73 -55 -88 -82 -55 -11 13 -8 28 15 86
24 59 27 72 14 80 -23 14 -26 12 -53 -56z"/>
<path d="M1827 3993 c-4 -7 58 -181 68 -191 2 -3 17 0 32 6 15 6 40 16 55 21
20 7 26 15 21 26 -5 16 -24 16 -66 -1 -11 -4 -22 14 -42 70 -21 56 -32 76 -46
76 -10 0 -20 -3 -22 -7z"/>
<path d="M1675 3923 c-17 -8 -40 -22 -53 -30 l-23 -14 47 -87 c26 -48 48 -88
50 -90 3 -4 74 32 96 50 11 8 15 18 9 26 -6 11 -15 10 -45 -5 -32 -15 -38 -15
-46 -3 -15 23 -12 28 20 45 17 9 30 20 30 25 0 18 -20 20 -49 6 -25 -14 -30
-14 -41 -1 -15 18 0 40 31 50 19 6 26 30 11 38 -4 3 -21 -2 -37 -10z"/>
<path d="M3327 3847 c-80 -126 -78 -122 -58 -134 15 -9 22 -3 52 46 l34 56 3
-82 c4 -104 19 -114 65 -40 80 126 78 122 58 134 -15 9 -22 3 -52 -46 l-34
-56 -3 82 c-4 104 -19 114 -65 40z"/>
<path d="M1443 3780 c-39 -23 -53 -48 -53 -92 0 -60 45 -107 103 -108 44 0 82
22 102 59 12 24 11 29 -15 60 l-27 34 -31 -22 c-19 -13 -29 -27 -25 -36 6 -18
15 -19 31 -3 10 10 15 10 22 -2 12 -20 -16 -50 -47 -50 -31 0 -73 42 -73 73 0
24 37 67 58 67 7 0 12 9 12 20 0 25 -16 25 -57 0z"/>
<path d="M2335 3794 c-334 -51 -582 -162 -817 -367 -116 -100 -260 -291 -338
-446 -45 -90 -106 -279 -126 -391 -24 -132 -24 -382 1 -510 57 -301 193 -559
410 -775 220 -221 481 -357 790 -412 123 -22 360 -21 490 2 605 106 1078 575
1191 1180 28 146 25 413 -4 552 -125 584 -560 1019 -1144 1144 -91 20 -379 34
-453 23z m432 -73 c285 -59 517 -184 723 -391 212 -211 344 -462 396 -750 24
-131 24 -363 0 -490 -114 -595 -573 -1046 -1165 -1145 -150 -25 -406 -17 -547
19 -261 65 -465 178 -656 364 -123 119 -209 236 -279 375 -276 548 -173 1193
260 1627 230 229 503 364 831 410 102 14 321 5 437 -19z"/>
<path d="M2847 3536 c327 -153 520 -494 481 -852 -8 -75 -7 -111 2 -154 10
-44 14 -51 21 -35 4 11 8 45 9 75 1 37 4 49 9 36 7 -19 8 -18 15 5 4 13 9 67
13 119 5 84 3 104 -19 168 -14 40 -22 69 -18 65 4 -4 16 -21 28 -37 l22 -29 0
40 c0 52 -33 180 -61 235 -89 176 -231 290 -454 363 -97 31 -115 32 -48 1z"/>
<path d="M2064 3516 c-147 -53 -211 -92 -299 -181 -59 -59 -90 -100 -117 -155
-44 -89 -70 -193 -66 -264 l3 -51 23 35 c13 19 20 26 16 15 -4 -11 -14 -53
-23 -92 -14 -66 -14 -80 1 -160 9 -49 23 -110 31 -138 15 -49 15 -49 22 -20 4
17 10 42 15 56 4 14 3 50 -2 80 -6 30 -8 108 -5 174 6 140 26 215 95 350 38
74 63 107 146 191 83 82 118 109 191 147 106 54 95 59 -31 13z"/>
<path d="M2245 3198 c20 -63 46 -122 57 -130 7 -4 47 -8 88 -8 82 -1 78 -10
-12 -29 l-57 -12 29 -53 c42 -74 57 -180 41 -287 -22 -142 -130 -417 -173
-440 -35 -19 -160 -59 -168 -54 -4 2 -10 25 -13 50 -8 56 -36 111 -76 149
l-31 30 -1 -60 -1 -59 -9 55 c-11 77 -18 90 -70 138 l-46 42 13 -52 c8 -29 14
-77 13 -108 l-1 -55 -13 72 c-16 90 -80 211 -100 191 -13 -13 -35 -168 -35
-243 0 -172 38 -328 111 -452 19 -32 69 -93 112 -137 74 -76 91 -100 65 -94
-7 1 -76 -25 -153 -59 -77 -34 -166 -72 -198 -85 -33 -13 -59 -27 -59 -33 0
-5 20 -20 44 -33 58 -32 134 -27 200 12 l47 28 -26 22 -27 23 50 -4 c39 -4 60
0 93 16 23 12 45 29 48 38 5 13 7 13 16 -3 12 -22 -10 -42 -176 -155 -108 -74
-117 -83 -103 -97 25 -26 125 -28 172 -4 38 19 92 68 83 75 -2 2 -15 11 -29
20 l-24 17 37 0 c21 0 51 7 67 15 25 13 29 13 34 -1 4 -10 -24 -48 -87 -115
-50 -55 -93 -103 -95 -108 -7 -21 98 -28 145 -10 32 12 66 41 95 82 l19 27
-43 19 -43 20 32 0 c26 1 41 -9 85 -55 87 -93 229 -184 309 -199 76 -14 230
69 344 184 42 44 67 61 85 60 22 0 20 -2 -12 -16 -21 -8 -38 -18 -38 -22 0
-16 63 -80 94 -95 39 -18 102 -21 142 -6 l28 11 -97 97 c-107 107 -115 133
-38 112 23 -6 52 -8 64 -4 19 6 20 5 9 -9 -8 -9 -23 -19 -34 -23 -19 -6 -19
-6 -1 -26 10 -11 37 -31 61 -45 36 -21 52 -25 100 -21 32 2 67 11 79 19 21 15
20 16 -50 63 -145 97 -217 151 -217 164 0 16 20 15 45 -4 33 -25 91 -36 133
-25 l37 10 -27 -22 c-16 -13 -28 -26 -28 -30 0 -16 102 -57 143 -57 46 0 135
38 128 55 -1 6 -82 44 -180 86 -97 41 -186 81 -198 87 -30 16 -20 42 32 86 92
76 188 245 218 381 32 145 30 363 -3 451 -10 26 -11 26 -30 9 -33 -30 -70
-118 -79 -186 l-8 -64 -1 70 c-1 39 5 87 12 108 8 20 10 37 6 37 -4 0 -28 -22
-53 -49 -35 -38 -47 -58 -51 -92 -12 -89 -13 -93 -15 -35 l-1 60 -36 -35 c-42
-40 -69 -95 -79 -161 -3 -27 -8 -48 -10 -48 -2 0 -42 14 -88 30 l-84 31 -56
117 c-30 64 -65 145 -78 180 -15 44 -26 61 -36 57 -38 -15 -45 -15 -20 2 22
14 27 23 22 43 -9 34 -10 34 -42 12 -15 -11 -39 -23 -53 -27 -23 -6 -23 -5 5
13 55 35 67 56 76 138 15 137 43 181 118 191 l41 6 -43 41 c-24 22 -50 50 -58
62 -32 46 -57 54 -174 54 l-110 0 -69 46 c-61 41 -67 43 -61 22z m351 -173
c-3 -9 -14 -15 -23 -13 -22 4 -30 38 -11 49 18 11 43 -15 34 -36z m57 -765
c78 -38 189 -85 247 -104 l105 -34 8 -53 c12 -84 -2 -333 -24 -416 -10 -41
-37 -110 -60 -153 -88 -169 -304 -349 -420 -350 -110 0 -336 187 -418 347 -65
129 -82 207 -88 423 -5 151 -3 187 8 196 8 6 60 25 117 44 57 18 163 63 235
100 73 37 135 67 140 68 4 1 71 -29 150 -68z"/>
<path d="M2403 2161 c-50 -26 -135 -62 -187 -80 -65 -23 -100 -40 -108 -54
-15 -29 -3 -284 17 -361 9 -33 32 -91 52 -129 66 -124 220 -254 316 -264 104
-12 282 127 360 283 47 93 58 159 55 331 l-3 158 -101 36 c-56 19 -144 56
-195 82 -52 26 -98 47 -104 46 -5 0 -51 -22 -102 -48z m161 -17 c56 -31 61
-47 53 -164 -9 -125 -5 -120 -99 -120 l-79 0 -16 38 c-9 20 -21 75 -27 122
l-12 85 56 32 c30 17 60 32 66 32 6 1 32 -11 58 -25z m261 -109 l57 -17 -5
-157 c-4 -156 -12 -197 -57 -294 -14 -29 -19 -29 -87 -1 l-33 13 30 64 c41 87
60 175 40 187 -24 15 -27 12 -33 -34 -8 -54 -42 -148 -65 -177 l-18 -21 -49
45 c-48 43 -49 46 -35 69 8 13 25 43 37 68 21 39 29 46 76 59 28 8 71 14 94
13 69 -3 103 45 67 96 -31 45 -114 18 -114 -39 0 -10 -14 -20 -39 -27 -48 -15
-51 -15 -46 1 2 6 6 57 9 112 3 55 5 101 6 102 0 1 24 -9 54 -22 30 -13 80
-31 111 -40z m-471 -9 c3 -35 13 -85 20 -110 l14 -47 -42 6 c-34 5 -44 4 -49
-9 -7 -19 -2 -22 48 -31 56 -10 59 -13 105 -84 l41 -64 -28 -29 c-15 -16 -47
-41 -71 -55 -52 -31 -60 -26 -103 64 -41 87 -49 162 -20 199 26 33 27 58 1 84
-27 27 -75 26 -94 -2 -22 -31 -20 -52 9 -86 14 -17 25 -43 25 -59 0 -44 28
-131 61 -191 l29 -52 -25 -10 c-50 -19 -61 -13 -88 48 -37 83 -47 147 -47 291
l0 129 83 27 c45 15 89 31 97 36 25 14 27 11 34 -55z m226 -213 c0 -5 -13 -28
-29 -51 l-29 -44 -31 45 c-17 25 -31 48 -31 51 0 3 27 6 60 6 33 0 60 -3 60
-7z m-16 -190 c17 -16 42 -35 56 -44 l24 -16 -47 -50 c-38 -40 -52 -49 -72
-45 -37 7 -75 -22 -75 -58 0 -36 23 -60 60 -60 34 0 60 23 60 53 1 12 25 48
54 81 l54 58 53 -19 53 -20 -54 -57 c-60 -63 -122 -107 -185 -131 -42 -17 -43
-16 -101 12 -69 33 -212 163 -192 174 43 23 77 20 119 -11 41 -30 79 -36 86
-15 1 6 -14 19 -34 30 -20 11 -38 25 -40 30 -2 6 16 22 40 37 23 15 53 39 67
53 30 31 35 31 74 -2z"/>
<path d="M1493 3107 c-63 -93 -93 -225 -75 -335 6 -37 20 -94 30 -127 l19 -60
14 50 14 50 6 -97 c5 -87 9 -106 44 -173 21 -41 40 -73 44 -70 3 3 15 -13 28
-37 l22 -43 1 69 c0 55 -7 85 -34 155 -54 133 -78 268 -85 473 l-6 178 -22
-33z"/>
<path d="M3470 2989 c0 -191 -18 -306 -72 -459 -31 -89 -40 -132 -42 -188 -1
-63 0 -71 12 -55 7 10 18 37 25 61 8 30 13 38 17 26 5 -13 12 -7 32 27 41 71
58 133 59 222 l1 82 16 -45 16 -45 19 60 c49 153 23 336 -63 445 l-20 25 0
-156z"/>
<path d="M3651 2790 c-50 -190 -146 -384 -257 -516 -29 -34 -47 -68 -54 -99
-15 -69 3 -74 41 -11 15 24 19 27 19 11 0 -15 10 -9 50 30 56 55 95 126 107
195 l8 45 5 -60 5 -60 37 50 c63 85 83 153 83 280 -1 77 -6 120 -17 145 l-15
35 -12 -45z"/>
<path d="M1308 2779 c-7 -24 -12 -87 -12 -139 0 -116 22 -181 91 -278 l48 -67
6 65 c3 36 6 49 7 30 1 -19 13 -59 27 -87 26 -58 111 -155 130 -151 7 2 22 -8
34 -22 l22 -25 -6 50 c-3 28 -14 60 -23 72 -100 127 -128 169 -173 256 -29 56
-69 153 -89 215 -21 62 -40 115 -43 118 -3 3 -12 -14 -19 -37z"/>
<path d="M1234 2407 c9 -116 72 -226 163 -286 25 -17 50 -31 55 -31 4 0 6 19
2 43 l-5 42 17 -33 c10 -19 31 -48 48 -64 35 -35 129 -83 134 -68 2 6 15 1 29
-10 14 -11 28 -19 30 -17 2 2 -5 22 -14 45 -14 31 -35 52 -93 90 -140 94 -227
176 -355 337 -15 19 -16 15 -11 -48z"/>
<path d="M3710 2409 c-62 -85 -191 -204 -303 -280 -81 -55 -96 -70 -109 -106
-18 -49 -11 -53 30 -18 19 16 32 21 34 14 6 -18 89 23 129 63 19 19 43 50 53
69 l17 34 -5 -42 c-4 -24 -2 -43 2 -43 19 0 94 62 123 103 47 63 70 124 76
200 3 37 4 67 2 67 -3 0 -24 -27 -49 -61z"/>
<path d="M1240 2131 c0 -34 53 -122 97 -160 40 -36 90 -59 165 -75 l27 -6 -14
35 c-20 47 -19 52 7 20 28 -35 112 -75 161 -75 22 0 36 4 32 10 -3 5 7 3 22
-5 15 -8 29 -13 31 -10 2 2 -7 21 -19 42 -21 37 -29 42 -113 67 -109 33 -248
91 -333 140 -53 29 -63 32 -63 17z"/>
<path d="M3705 2122 c-63 -41 -219 -108 -333 -144 -96 -30 -107 -36 -129 -71
-13 -22 -22 -41 -19 -44 2 -3 19 2 37 11 38 19 42 20 33 4 -5 -8 6 -9 40 -5
61 9 107 31 147 71 24 23 30 26 24 11 -19 -50 -18 -55 6 -55 41 0 122 45 165
92 39 42 80 126 73 146 -2 5 -22 -2 -44 -16z"/>
<path d="M1324 1841 c19 -36 70 -79 116 -99 34 -15 155 -21 167 -9 3 4 -2 18
-11 32 -20 30 -17 31 28 5 27 -17 48 -20 98 -18 43 2 62 7 61 15 -2 9 4 10 23
2 36 -13 40 -6 15 29 -21 29 -22 30 -143 37 -68 4 -172 13 -233 21 -146 19
-138 19 -121 -15z"/>
<path d="M3580 1860 c-25 -5 -121 -14 -215 -20 -164 -12 -171 -13 -192 -39
-12 -14 -22 -30 -23 -35 0 -8 29 -3 64 10 12 4 15 2 11 -8 -5 -12 4 -17 34
-21 52 -7 106 6 143 33 33 24 36 19 8 -20 l-20 -28 38 -5 c45 -7 106 4 148 26
31 16 104 93 104 109 0 9 -37 9 -100 -2z"/>
<path d="M1810 1724 c-30 -7 -129 -26 -220 -40 -91 -15 -167 -30 -170 -32 -3
-2 12 -19 33 -37 66 -58 138 -65 245 -24 l25 10 -24 26 c-21 23 -22 25 -4 18
45 -19 107 -17 168 5 34 12 64 24 66 26 5 5 -50 64 -58 63 -3 -1 -31 -7 -61
-15z"/>
<path d="M3089 1713 c-36 -30 -28 -47 18 -40 29 5 33 4 23 -8 -9 -11 -2 -17
41 -29 63 -19 73 -19 122 -1 l39 13 -23 -24 c-28 -30 -20 -38 53 -53 48 -11
96 -6 133 12 23 11 75 58 75 67 0 4 -39 12 -86 19 -47 7 -148 25 -225 40
l-140 29 -30 -25z"/>
<path d="M3620 3755 c0 -8 7 -15 15 -15 8 0 15 7 15 15 0 8 -7 15 -15 15 -8 0
-15 -7 -15 -15z"/>
<path d="M3531 3659 c-58 -74 -62 -81 -46 -93 16 -12 24 -6 68 48 28 34 57 69
65 78 12 14 12 20 2 33 -7 8 -15 15 -19 15 -3 0 -35 -36 -70 -81z"/>
<path d="M3666 3543 c-42 -86 -46 -98 -32 -111 13 -14 25 -11 111 28 52 24 95
46 95 49 0 4 -5 12 -11 18 -8 8 -29 3 -76 -18 -36 -16 -67 -29 -70 -29 -2 0
11 29 30 65 32 59 33 65 18 79 -15 14 -21 7 -65 -81z"/>
<path d="M1113 3463 c-7 -17 -1 -22 105 -110 l42 -35 40 43 c44 50 47 57 23
66 -11 4 -24 -3 -39 -22 l-23 -29 -60 52 c-64 56 -78 61 -88 35z"/>
<path d="M3845 3369 c-38 -28 -76 -54 -84 -59 -12 -6 -9 -17 20 -59 19 -28 39
-51 46 -51 23 0 24 20 1 50 -21 29 -21 31 -4 48 16 16 19 16 41 -12 15 -19 28
-27 40 -22 15 5 14 9 -6 37 -20 29 -20 32 -5 47 11 11 19 13 24 6 34 -49 41
-56 56 -47 15 8 13 15 -15 54 -17 24 -34 47 -38 51 -3 3 -37 -16 -76 -43z"/>
<path d="M1013 3332 c-10 -17 -5 -23 42 -51 29 -18 60 -40 69 -50 15 -17 15
-20 -2 -41 l-19 -24 -49 29 c-27 16 -59 35 -71 42 -19 13 -23 12 -32 -5 -10
-18 -4 -25 54 -61 74 -47 112 -52 142 -18 52 58 40 96 -48 153 -38 24 -70 44
-72 44 -1 0 -7 -8 -14 -18z"/>
<path d="M3958 3164 c-49 -24 -88 -48 -88 -53 0 -21 25 -29 50 -16 54 30 65
13 24 -40 -21 -28 -24 -37 -14 -55 11 -21 12 -20 41 16 16 20 29 41 29 47 0 5
6 4 15 -3 19 -16 52 -4 71 25 14 21 13 28 -7 74 -12 28 -24 51 -28 50 -3 0
-45 -20 -93 -45z m96 -30 c8 -21 -1 -34 -25 -34 -24 0 -37 29 -18 41 21 13 36
11 43 -7z"/>
<path d="M865 3057 c-16 -26 -39 -87 -34 -91 7 -4 177 -76 182 -76 3 0 12 18
21 40 32 79 15 126 -43 118 -20 -3 -32 1 -40 14 -16 26 -67 24 -86 -5z m63
-50 c3 -27 -4 -32 -32 -21 -19 7 -21 25 -4 42 18 18 33 9 36 -21z m79 -13 c3
-8 2 -24 -3 -34 -8 -16 -12 -17 -31 -7 -21 12 -22 14 -7 35 18 26 32 28 41 6z"/>
<path d="M4095 2946 c-11 -8 -21 -31 -24 -57 -5 -35 -10 -44 -26 -44 -15 0
-21 8 -25 35 -3 23 -11 36 -22 38 -15 3 -18 -4 -18 -38 0 -45 34 -90 67 -90
30 0 63 29 63 55 0 13 5 36 10 50 8 22 13 25 25 15 7 -6 15 -24 17 -38 2 -16
9 -27 18 -27 11 0 15 10 14 39 -2 62 -55 95 -99 62z"/>
<path d="M780 2822 c0 -15 13 -22 56 -31 30 -7 53 -15 50 -18 -3 -4 -34 -15
-68 -27 -47 -16 -64 -26 -66 -41 -3 -18 8 -23 90 -43 112 -27 108 -27 108 -3
0 15 -12 22 -55 32 -30 7 -55 15 -55 19 0 3 32 16 70 29 53 17 70 27 70 40 0
15 -17 23 -85 40 -103 26 -115 26 -115 3z"/>
<path d="M4261 2726 c-8 -10 -8 -16 2 -24 17 -14 42 2 34 22 -8 20 -21 20 -36
2z"/>
<path d="M4205 2725 c-5 -2 -45 -11 -87 -20 -64 -14 -78 -20 -78 -36 0 -23 10
-24 116 -2 76 16 84 20 84 40 0 21 -10 27 -35 18z"/>
<path d="M4234 2565 c-4 -8 -4 -21 -1 -29 6 -16 -31 -26 -93 -26 -52 0 -70 -8
-70 -32 0 -18 5 -19 85 -12 l85 7 0 -27 c0 -20 5 -26 21 -26 19 0 20 4 13 73
-3 39 -9 75 -11 80 -7 12 -23 8 -29 -8z"/>
<path d="M880 2545 c-25 -7 -71 -21 -102 -30 -49 -14 -58 -20 -58 -39 0 -19
15 -30 90 -65 50 -22 95 -41 100 -41 19 0 10 42 -10 47 -16 4 -20 14 -20 44 0
33 4 40 25 45 18 4 25 13 25 30 0 13 -1 24 -2 23 -2 0 -23 -7 -48 -14z m-30
-75 c0 -23 -21 -26 -53 -8 l-22 12 25 7 c42 12 50 10 50 -11z"/>
<path d="M4078 2314 c-5 -4 -8 -34 -8 -66 0 -51 2 -58 20 -58 17 0 20 7 20 40
0 36 3 40 25 40 23 0 25 -4 25 -40 0 -29 4 -40 15 -40 9 0 15 9 15 24 0 37 10
56 31 56 15 0 19 -7 19 -39 0 -24 5 -41 14 -44 22 -9 26 2 26 65 l0 58 -47 0
c-27 0 -70 3 -98 6 -27 3 -53 3 -57 -2z"/>
<path d="M713 2250 c4 -35 7 -71 7 -81 0 -12 7 -19 18 -19 15 0 18 6 14 30 -4
30 -4 30 44 30 87 0 124 10 124 33 0 19 -4 20 -84 13 l-85 -6 -3 27 c-2 18
-10 29 -22 31 -18 4 -19 -1 -13 -58z"/>
<path d="M4055 2080 c-46 -88 35 -164 100 -94 14 15 25 31 25 35 0 15 30 10
36 -5 3 -8 0 -24 -6 -36 -9 -17 -9 -25 0 -34 17 -17 40 20 40 65 0 77 -57 91
-113 28 -20 -22 -41 -38 -47 -34 -14 8 -13 48 1 62 13 13 5 43 -10 43 -6 0
-17 -13 -26 -30z"/>
<path d="M849 2054 c-8 -9 -19 -33 -24 -53 -14 -47 -38 -47 -45 -1 -8 53 -35
47 -34 -7 1 -53 17 -73 59 -73 37 0 52 14 61 58 13 63 48 61 56 -3 4 -36 31
-41 36 -6 5 32 -5 66 -24 85 -20 21 -68 20 -85 0z"/>
<path d="M4002 1858 c2 -17 19 -27 88 -50 88 -29 114 -30 108 -2 -2 12 -32 26
-93 45 -109 34 -107 34 -103 7z"/>
<path d="M895 1827 c-49 -16 -92 -31 -93 -33 -2 -1 -1 -11 2 -22 7 -19 9 -19
101 11 71 24 95 36 95 49 0 9 -3 19 -7 21 -5 2 -48 -9 -98 -26z"/>
<path d="M4217 1804 c-14 -15 -6 -34 14 -34 14 0 19 5 17 17 -3 18 -20 27 -31
17z"/>
<path d="M750 1760 c0 -13 7 -20 20 -20 13 0 20 7 20 20 0 13 -7 20 -20 20
-13 0 -20 -7 -20 -20z"/>
<path d="M2062 752 c-7 -5 -10 -16 -6 -25 4 -12 11 -14 29 -7 30 12 60 -9 51
-36 -3 -11 -30 -35 -60 -53 -30 -18 -57 -39 -60 -46 -5 -15 31 -29 108 -42 34
-5 38 -4 34 13 -2 10 -12 20 -23 22 -47 7 -49 13 -14 33 46 28 59 47 59 85 0
23 -7 38 -22 48 -24 17 -75 21 -96 8z"/>
<path d="M2826 739 c-29 -23 -34 -60 -12 -79 11 -8 12 -18 6 -34 -11 -31 8
-67 42 -79 44 -14 102 19 106 59 2 17 -3 38 -11 45 -7 8 -14 29 -14 48 0 59
-64 81 -117 40z m77 -33 c7 -17 -11 -36 -34 -36 -22 0 -33 16 -25 35 7 19 52
19 59 1z m23 -81 c9 -21 -15 -47 -40 -43 -24 4 -34 37 -14 49 21 14 48 10 54
-6z"/>
<path d="M2319 707 c-44 -33 -54 -126 -18 -171 24 -31 87 -36 114 -9 49 49 43
166 -10 187 -26 10 -69 6 -86 -7z m82 -54 c12 -31 -5 -99 -26 -107 -39 -15
-63 26 -51 89 11 57 58 68 77 18z"/>
<path d="M2582 713 c-38 -15 -54 -111 -27 -162 16 -33 33 -41 80 -41 51 0 78
40 73 108 -6 65 -36 102 -82 101 -17 0 -37 -3 -44 -6z m84 -89 c4 -24 1 -42
-10 -59 -30 -45 -64 -25 -73 43 -4 32 -1 44 17 62 21 21 23 21 41 4 10 -9 21
-32 25 -50z"/>
<path d="M5180 3725 c0 -32 2 -35 30 -35 28 0 30 3 30 35 0 32 -2 35 -30 35
-28 0 -30 -3 -30 -35z"/>
<path d="M5453 3670 c-47 -15 -83 -63 -83 -111 0 -70 17 -90 122 -144 37 -19
72 -44 78 -54 18 -34 12 -68 -16 -90 -34 -26 -83 -27 -133 -1 l-39 19 -16 -24
c-15 -23 -15 -24 27 -44 98 -48 215 -18 245 61 30 78 -5 136 -113 190 -76 38
-95 55 -95 85 0 56 86 83 155 47 27 -14 30 -14 42 2 19 26 16 32 -18 49 -38
20 -114 27 -156 15z"/>
<path d="M5180 3435 l0 -235 30 0 30 0 0 235 0 235 -30 0 -30 0 0 -235z"/>
<path d="M5730 3645 c0 -23 3 -24 68 -27 l67 -3 3 -207 2 -208 30 0 30 0 0
210 0 210 65 0 c63 0 65 1 65 25 l0 25 -165 0 -165 0 0 -25z"/>
<path d="M6142 3443 c-45 -126 -82 -232 -82 -236 0 -4 13 -7 28 -7 26 0 31 6
53 63 l25 62 93 0 94 0 21 -60 c19 -56 23 -60 54 -63 40 -4 47 -33 -58 252
l-77 211 -34 3 -34 3 -83 -228z m153 47 c15 -47 30 -91 33 -97 3 -10 -15 -13
-71 -13 l-76 0 36 105 c20 58 40 102 43 98 4 -5 20 -46 35 -93z"/>
<path d="M6552 3438 l3 -233 27 -3 28 -3 2 181 3 181 106 -178 c98 -167 107
-178 137 -181 l32 -3 0 235 0 236 -30 0 -30 0 0 -182 0 -182 -107 182 c-105
177 -108 182 -140 182 l-33 0 2 -232z"/>
<path d="M7030 3435 l0 -238 102 7 c154 11 198 41 198 137 0 34 -6 47 -34 73
l-33 32 23 21 c31 27 40 80 21 126 -25 58 -56 71 -174 75 l-103 4 0 -237z
m200 160 c13 -12 20 -31 20 -56 0 -49 -27 -68 -104 -76 l-56 -6 0 83 0 82 60
-4 c39 -3 66 -11 80 -23z m-35 -185 c52 -12 79 -44 71 -85 -10 -48 -39 -65
-112 -65 l-64 0 0 80 0 80 33 0 c17 0 50 -5 72 -10z"/>
<path d="M7450 3487 c0 -157 2 -187 18 -216 26 -48 74 -71 147 -71 73 0 121
23 147 71 16 29 18 59 18 216 l0 183 -30 0 -30 0 0 -179 c0 -172 -1 -181 -23
-206 -44 -52 -154 -39 -177 21 -6 14 -10 102 -10 195 l0 169 -30 0 -30 0 0
-183z"/>
<path d="M7920 3435 l0 -235 125 0 125 0 0 30 0 30 -95 0 -95 0 0 205 0 205
-30 0 -30 0 0 -235z"/>
<path d="M7548 3086 c-44 -33 -42 -98 4 -130 52 -36 118 2 118 68 0 59 -75 98
-122 62z"/>
<path d="M8655 3075 c-42 -41 -30 -102 25 -125 60 -25 121 29 104 94 -14 57
-86 74 -129 31z"/>
<path d="M5413 2900 c-180 -64 -282 -223 -271 -422 6 -99 39 -182 100 -251 46
-51 135 -102 207 -117 82 -17 276 -8 356 17 l60 19 6 114 c6 131 10 145 50
166 16 8 29 19 29 24 0 6 -65 10 -165 10 -165 0 -195 -7 -139 -32 40 -18 54
-57 54 -148 0 -72 -3 -84 -24 -105 -52 -52 -177 -41 -248 23 -71 64 -98 145
-98 294 0 120 13 186 53 261 61 116 164 154 289 107 58 -21 134 -91 162 -147
9 -18 21 -33 26 -33 6 0 10 46 10 111 0 111 0 111 -22 104 -53 -16 -78 -16
-142 4 -89 27 -219 28 -293 1z"/>
<path d="M8023 2900 c-81 -42 -123 -113 -123 -208 0 -109 44 -161 240 -285 53
-34 99 -72 111 -90 56 -93 -27 -190 -149 -173 -82 11 -156 82 -177 169 -4 15
-13 27 -21 27 -11 0 -14 -24 -14 -120 0 -125 5 -137 41 -104 16 14 24 14 94
-1 159 -36 282 -4 342 87 22 32 28 56 31 109 7 121 -37 179 -226 296 -150 94
-184 142 -147 212 16 32 69 61 112 61 63 -1 168 -78 188 -139 3 -12 13 -21 21
-21 11 0 14 20 14 101 l0 101 -27 -7 c-33 -8 -39 -8 -168 0 -90 6 -104 4 -142
-15z"/>
<path d="M6020 2891 c0 -5 13 -12 30 -16 16 -4 39 -18 50 -32 19 -24 20 -40
20 -332 0 -340 0 -340 -65 -361 -19 -6 -35 -16 -35 -21 0 -5 123 -9 300 -9
l299 0 5 33 c13 88 14 157 1 157 -7 0 -18 -13 -23 -28 -15 -44 -69 -99 -109
-113 -21 -7 -61 -9 -97 -6 -91 8 -96 17 -96 188 l0 139 80 0 c98 0 133 -15
151 -65 7 -19 19 -35 26 -35 10 0 13 28 13 120 0 99 -3 120 -15 120 -8 0 -17
-11 -21 -24 -13 -52 -47 -69 -144 -74 l-90 -4 0 166 0 166 90 0 c122 0 155
-14 183 -80 11 -27 25 -50 29 -50 4 0 8 38 8 85 l0 85 -295 0 c-173 0 -295 -4
-295 -9z"/>
<path d="M6710 2891 c0 -5 16 -15 35 -21 65 -21 65 -22 65 -352 0 -175 -4
-308 -10 -323 -7 -17 -24 -32 -50 -42 -22 -9 -40 -20 -40 -25 0 -4 135 -8 300
-8 l300 0 5 23 c2 12 8 57 13 100 10 89 -4 103 -37 39 -46 -90 -131 -134 -229
-117 -77 13 -77 11 -80 326 -3 326 0 348 58 374 22 10 40 22 40 27 0 4 -83 8
-185 8 -106 0 -185 -4 -185 -9z"/>
<path d="M7410 2891 c0 -5 16 -15 35 -21 65 -21 65 -22 65 -352 0 -163 -4
-307 -9 -320 -5 -14 -27 -32 -50 -43 -23 -10 -41 -22 -41 -27 0 -4 83 -8 185
-8 188 0 217 6 153 33 -64 27 -63 19 -63 358 l0 307 23 25 c13 14 35 28 48 31
13 4 24 11 24 16 0 6 -71 10 -185 10 -106 0 -185 -4 -185 -9z"/>
<path d="M8520 2891 c0 -5 16 -15 35 -21 63 -21 65 -34 65 -357 0 -209 -4
-295 -13 -313 -7 -14 -29 -33 -50 -43 -20 -10 -37 -23 -37 -28 0 -5 79 -9 185
-9 102 0 185 4 185 8 0 5 -17 17 -39 26 -21 10 -44 29 -50 42 -7 17 -11 122
-11 310 0 324 3 344 64 364 20 6 36 16 36 21 0 5 -79 9 -185 9 -106 0 -185 -4
-185 -9z"/>
<path d="M9080 2892 c0 -5 17 -14 38 -20 21 -7 47 -20 56 -31 17 -18 16 -32
-23 -288 -23 -147 -46 -286 -52 -307 -13 -48 -57 -94 -98 -102 -70 -14 -22
-24 114 -24 90 0 145 4 145 10 0 6 -6 10 -14 10 -24 0 -73 48 -79 77 -7 30 63
536 72 527 3 -3 60 -143 127 -312 98 -247 125 -307 140 -307 14 0 43 61 143
313 99 247 127 309 133 290 3 -13 21 -125 38 -249 35 -257 34 -281 -21 -317
-19 -13 -35 -27 -37 -33 -2 -5 74 -9 192 -9 193 0 231 7 162 30 -45 15 -73 47
-85 100 -6 25 -27 158 -47 295 -40 280 -39 293 21 322 19 9 35 20 35 25 0 4
-60 8 -133 8 l-133 0 -100 -250 c-54 -137 -102 -250 -105 -250 -3 0 -50 113
-104 250 l-99 250 -143 0 c-79 0 -143 -4 -143 -8z"/>
<path d="M8123 2060 c-47 -19 -58 -92 -20 -128 42 -40 107 -25 126 28 23 67
-41 127 -106 100z"/>
<path d="M5366 1969 c-54 -42 -23 -139 45 -139 44 0 79 35 79 80 0 30 -6 43
-26 59 -15 12 -37 21 -49 21 -12 0 -34 -9 -49 -21z"/>
<path d="M5635 1965 c-51 -50 -17 -136 54 -135 75 1 103 100 39 144 -32 23
-65 20 -93 -9z"/>
<path d="M7033 1980 c-47 -19 -57 -87 -18 -125 41 -42 102 -30 125 25 16 38 0
82 -36 99 -29 13 -41 13 -71 1z"/>
<path d="M10375 1978 c-51 -29 -60 -84 -20 -123 48 -49 135 -15 135 52 -1 32
-15 55 -47 71 -27 15 -42 15 -68 0z"/>
<path d="M12803 1980 c-47 -19 -57 -87 -18 -125 41 -42 102 -30 125 25 16 38
0 82 -36 99 -29 13 -41 13 -71 1z"/>
<path d="M9791 1785 c-53 -17 -116 -76 -132 -123 -14 -42 -14 -127 -1 -163 18
-47 67 -93 167 -157 55 -36 115 -78 132 -95 86 -81 32 -187 -95 -187 -59 0
-95 15 -133 57 -30 32 -59 85 -59 108 0 8 -7 15 -15 15 -12 0 -15 -19 -15
-110 0 -111 7 -129 38 -98 8 8 35 7 111 -6 82 -15 109 -16 154 -6 110 23 177
100 177 205 0 110 -37 158 -212 271 -125 82 -158 115 -158 163 0 29 46 78 85
91 69 23 163 -28 206 -112 11 -21 24 -38 29 -38 6 0 10 41 10 100 0 101 -7
119 -38 88 -9 -9 -26 -9 -75 0 -81 15 -120 14 -176 -3z"/>
<path d="M10666 1785 c-10 -26 -7 -167 3 -163 6 2 20 18 33 37 38 57 69 73
147 79 l71 5 0 -306 c0 -168 -4 -317 -9 -330 -6 -16 -24 -30 -45 -38 -20 -7
-36 -19 -36 -26 0 -10 37 -13 169 -13 99 0 172 4 176 10 3 5 -10 16 -29 24
-19 8 -39 23 -45 34 -7 14 -11 128 -11 331 l0 311 43 0 c91 0 153 -32 177 -91
7 -16 19 -29 27 -29 12 0 14 14 8 88 -4 48 -8 88 -10 90 -1 1 -15 -3 -32 -8
-35 -13 -589 -10 -614 3 -11 6 -18 3 -23 -8z"/>
<path d="M12218 1788 c-46 -12 -110 -67 -132 -112 -23 -48 -21 -147 3 -194 26
-50 58 -79 176 -154 116 -75 155 -115 155 -162 0 -82 -109 -132 -207 -95 -53
20 -123 107 -123 154 0 8 -7 15 -15 15 -12 0 -15 -19 -15 -110 0 -113 3 -121
39 -98 15 9 39 8 113 -6 117 -22 186 -12 250 37 57 45 78 88 78 165 0 107 -45
167 -200 262 -47 29 -99 64 -117 77 -29 22 -53 67 -53 99 0 23 50 72 85 84 69
23 163 -28 206 -112 11 -21 24 -38 29 -38 6 0 10 41 10 100 0 101 -7 119 -38
88 -9 -9 -26 -9 -75 0 -74 14 -117 14 -169 0z"/>
<path d="M5120 1770 c0 -5 15 -16 34 -24 19 -8 39 -23 45 -34 7 -13 11 -106
11 -255 0 -260 8 -308 60 -365 47 -52 112 -76 200 -76 82 1 131 19 194 74 18
17 36 30 40 30 3 0 6 -20 6 -45 l0 -45 124 0 c69 0 127 4 130 9 4 5 -11 18
-31 28 -21 10 -43 29 -50 43 -16 32 -18 542 -3 587 10 28 29 43 73 57 9 3 17
10 17 16 0 6 -63 10 -180 10 -187 0 -214 -7 -141 -36 22 -8 43 -26 50 -40 7
-16 11 -108 11 -267 l0 -243 -37 -36 c-96 -91 -216 -100 -270 -19 -23 33 -23
39 -23 301 0 293 -2 285 63 309 61 24 26 31 -148 31 -108 0 -175 -4 -175 -10z"/>
<path d="M6020 1774 c0 -3 23 -26 51 -52 l50 -45 -3 -272 c-3 -244 -5 -274
-22 -299 -10 -16 -31 -33 -47 -39 -16 -6 -29 -17 -29 -24 0 -10 30 -13 125
-13 99 0 125 3 125 14 0 7 -12 16 -27 19 -45 9 -64 30 -74 78 -10 54 -12 479
-1 478 4 0 126 -135 272 -300 145 -164 269 -298 275 -296 6 2 12 122 15 340
l5 335 24 26 c13 14 36 28 52 31 65 14 22 25 -101 25 -135 0 -158 -8 -96 -34
56 -23 60 -40 64 -258 2 -109 0 -198 -5 -197 -4 0 -102 110 -218 244 l-210
244 -112 0 c-62 1 -113 -2 -113 -5z"/>
<path d="M6910 1770 c0 -5 15 -16 34 -24 19 -8 39 -23 45 -34 7 -14 11 -122
11 -311 0 -276 -1 -292 -20 -311 -11 -11 -31 -22 -45 -26 -14 -3 -25 -12 -25
-20 0 -11 32 -14 175 -14 143 0 175 3 175 14 0 8 -11 17 -25 20 -14 4 -34 15
-45 26 -19 19 -20 35 -20 311 0 189 4 297 11 311 6 11 26 26 45 34 65 27 38
34 -141 34 -108 0 -175 -4 -175 -10z"/>
<path d="M7340 1770 c0 -6 11 -14 23 -19 48 -19 77 -75 208 -406 73 -184 138
-335 144 -335 7 0 68 147 136 326 67 180 132 341 144 358 11 17 37 39 58 49
20 10 37 23 37 28 0 5 -56 9 -125 9 -130 0 -152 -8 -90 -34 58 -24 56 -45 -20
-255 -37 -102 -71 -192 -75 -200 -4 -8 -33 52 -73 155 -102 260 -103 261 -82
284 10 11 26 22 36 25 53 17 5 25 -151 25 -109 0 -170 -4 -170 -10z"/>
<path d="M8150 1770 c0 -5 16 -16 35 -24 21 -9 39 -26 45 -41 6 -15 10 -145
10 -306 l0 -281 -29 -29 c-16 -16 -37 -29 -45 -29 -9 0 -16 -7 -16 -15 0 -13
38 -15 280 -15 216 0 282 3 284 13 3 6 7 47 9 90 6 91 -7 102 -41 32 -31 -64
-70 -85 -158 -85 -56 0 -77 4 -95 19 -23 18 -24 24 -24 153 l0 133 87 0 c77 0
90 -3 112 -24 13 -12 27 -34 30 -47 4 -13 11 -24 16 -24 6 0 10 46 10 115 0
120 -9 141 -34 81 -20 -47 -41 -56 -141 -56 l-86 0 3 153 3 152 102 0 c94 0
103 -2 127 -24 15 -14 32 -42 38 -63 18 -61 33 -40 36 50 l3 82 -281 0 c-177
0 -280 -4 -280 -10z"/>
<path d="M8790 1770 c0 -6 12 -15 27 -21 65 -25 63 -13 63 -341 l0 -299 -25
-24 c-13 -14 -33 -25 -45 -25 -11 0 -20 -7 -20 -15 0 -13 26 -15 175 -15 137
0 175 3 175 13 0 7 -16 19 -36 26 -21 8 -39 22 -45 38 -5 13 -9 83 -9 155 l0
131 47 -7 c64 -8 89 -36 156 -165 31 -58 70 -126 87 -149 l30 -42 105 0 c87 0
105 3 105 15 0 8 -7 15 -16 15 -29 0 -79 63 -143 178 -34 62 -78 128 -97 147
-19 20 -29 35 -21 35 23 0 95 58 112 89 19 38 19 123 0 161 -22 43 -73 77
-140 95 -71 18 -485 22 -485 5z m365 -41 c22 -6 50 -20 62 -31 30 -28 46 -97
34 -150 -18 -80 -67 -116 -158 -117 l-43 -1 0 155 0 155 33 0 c17 0 50 -5 72
-11z"/>
<path d="M10230 1770 c0 -6 18 -18 41 -26 25 -10 44 -26 50 -41 14 -38 11
-563 -4 -593 -7 -14 -29 -33 -50 -43 -20 -10 -35 -23 -31 -28 7 -12 341 -12
348 0 4 5 -11 18 -31 28 -21 10 -43 29 -50 43 -16 31 -18 527 -3 581 8 30 18
40 50 53 74 29 48 36 -140 36 -114 0 -180 -4 -180 -10z"/>
<path d="M11400 1772 c0 -5 18 -16 40 -25 26 -10 43 -25 50 -42 15 -40 13
-564 -3 -595 -7 -14 -29 -33 -50 -43 -20 -10 -35 -23 -31 -28 3 -5 126 -9 284
-9 l279 0 5 33 c12 78 13 147 1 147 -7 0 -18 -12 -24 -27 -15 -35 -39 -63 -71
-86 -36 -25 -159 -24 -191 2 -23 18 -24 24 -24 153 l0 133 67 3 c87 4 134 -15
153 -63 26 -61 35 -41 35 80 0 66 -4 115 -10 115 -5 0 -16 -15 -25 -34 -21
-45 -51 -56 -146 -56 l-80 0 3 153 3 152 97 0 c113 0 142 -14 167 -83 8 -23
19 -42 23 -42 4 0 8 38 8 85 l0 85 -280 0 c-154 0 -280 -4 -280 -8z"/>
<path d="M12652 1768 c2 -6 20 -17 39 -23 57 -19 59 -31 59 -340 0 -312 0
-314 -67 -341 -18 -8 -31 -19 -28 -24 4 -6 79 -10 181 -10 144 0 174 2 174 14
0 8 -13 17 -29 21 -16 3 -37 15 -47 27 -18 19 -19 42 -19 313 0 321 -1 315 63
342 64 27 35 33 -149 33 -134 0 -180 -3 -177 -12z"/>
</g>
</svg>
