<?xml version="1.0" standalone="no"?>
<!DOCTYPE svg PUBLIC "-//W3C//DTD SVG 20010904//EN"
 "http://www.w3.org/TR/2001/REC-SVG-20010904/DTD/svg10.dtd">
<svg version="1.0" xmlns="http://www.w3.org/2000/svg"
 width="287.000000pt" height="176.000000pt" viewBox="0 0 287.000000 176.000000"
 preserveAspectRatio="xMidYMid meet">

<g transform="translate(0.000000,176.000000) scale(0.100000,-0.100000)"
fill="#000000" stroke="none">
<path d="M0 880 l0 -880 1435 0 1435 0 0 880 0 880 -1435 0 -1435 0 0 -880z
m2680 105 l0 -365 -65 0 -65 0 0 365 0 365 65 0 65 0 0 -365z m-1396 306 c39
-43 -9 -133 -63 -116 -50 16 -69 79 -34 117 21 24 75 23 97 -1z m-743 -163
c19 -6 47 -20 62 -31 l29 -20 60 32 c50 26 72 31 127 31 83 0 135 -23 184 -80
48 -56 58 -111 55 -290 l-3 -145 -65 0 -65 0 -5 172 c-5 163 -6 173 -29 197
-31 33 -70 41 -114 22 -56 -23 -61 -42 -67 -226 l-5 -165 -65 0 -65 0 -5 165
c-6 190 -13 211 -79 231 -32 9 -47 9 -71 -1 -53 -22 -62 -54 -64 -234 l-2
-161 -65 0 -64 0 -3 145 c-4 181 1 217 39 273 54 83 178 120 280 85z m757
-250 l-3 -253 -62 -3 -63 -3 0 256 0 255 65 0 65 0 -2 -252z m242 115 c0 -76
5 -156 10 -178 25 -110 170 -115 200 -7 5 20 10 101 10 180 l0 142 65 0 65 0
0 -170 c0 -186 -7 -220 -58 -273 -48 -51 -99 -71 -182 -71 -64 -1 -82 3 -120
26 -107 62 -120 98 -120 318 l0 170 65 0 65 0 0 -137z m570 -13 c0 -163 9
-204 51 -234 35 -24 93 -21 125 7 33 29 42 81 43 255 l1 122 65 0 65 0 0 -161
c0 -178 -8 -220 -52 -274 -47 -56 -100 -79 -188 -79 -83 -1 -133 19 -182 71
-51 53 -58 87 -58 273 l0 170 65 0 65 0 0 -150z"/>
</g>
</svg>
